<?xml version="1.0" encoding="utf-8"?>
<!-- Generator: Adobe Illustrator 23.0.5, SVG Export Plug-In . SVG Version: 6.00 Build 0)  -->
<svg version="1.1" id="Layer_1" xmlns="http://www.w3.org/2000/svg" xmlns:xlink="http://www.w3.org/1999/xlink" x="0px" y="0px"
	 viewBox="0 0 2000 2000" style="enable-background:new 0 0 2000 2000;" xml:space="preserve">
<style type="text/css">
	.st0{fill:#0D6EFD;}
</style>
<g>
	<path d="M450.97,1353.99c0,15.37-6.1,23.16-18.12,23.16c-6.5,0-11.21-3.45-13.45-6.68l-1.81-2.62l-9.86,16.85l0.84,1.08
		c4.01,5.19,14.19,10.55,24.28,10.55c23.71,0,37.3-15.89,37.3-43.6v-67.54h-19.18V1353.99z"/>
	<path d="M560.5,1370.91c6.58-8.36,10.98-20.04,13.79-36.58l0.35-2.07h-15.5l-0.23,1.51c-1.74,11.35-4.41,20.07-8.15,26.56
		c-5.89-6.62-13.77-15.73-21.53-24.71c14.64-7.63,21.19-16.14,21.19-27.41c0-13.33-10.05-23-23.89-23
		c-17.83,0-27.16,13.29-27.16,26.42c0,6.81,2.65,13.94,7.67,20.7c-12.58,7.36-18.96,17.42-18.96,29.92
		c0,14.82,11.17,29.83,32.5,29.83c11.28,0,20.83-3.51,29.13-10.72c3.04,3.26,5.56,5.92,8.21,8.57l0.52,0.52h20.25l-7.47-8.04
		C567.51,1378.4,564.03,1374.64,560.5,1370.91z M514.93,1342.3c9.68,11.08,19.38,21.73,25.25,28.18l0.83,0.91
		c-4.84,4.67-11.39,7.32-18.2,7.32c-10.84,0-18.71-7.74-18.71-18.42C504.1,1353.33,507.74,1347.28,514.93,1342.3z M521.02,1326.08
		c-3.35-4.34-6.23-9.27-6.23-15.65c0-6.36,3.35-12.77,10.84-12.77c7.74,0,9.81,7,9.81,11.14
		C535.44,1315.96,529.96,1320.81,521.02,1326.08z"/>
	<rect x="622.87" y="1330.54" width="36.52" height="19.18"/>
	<rect x="598.9" y="1285.2" width="19.18" height="109.88"/>
	<polygon points="664.41,1330.54 664.18,1330.54 664.18,1347.69 664.41,1349.73 664.41,1395.07 683.59,1395.07 683.59,1285.2 
		664.41,1285.2 	"/>
	<path d="M779.14,1285.2h-33.68v19.18h37.62c18.77,0,32.92,15.37,32.92,35.76c0,20.39-14.15,35.76-32.92,35.76h-37.62v19.18h33.68
		c33.52,0,56.04-22.08,56.04-54.94c0-15.32-5.09-29.11-14.33-38.84C810.83,1290.77,796.41,1285.2,779.14,1285.2z"/>
	<rect x="846.97" y="1285.2" width="64.53" height="19.18"/>
	<rect x="846.97" y="1330.76" width="56.97" height="18.96"/>
	<polygon points="846.97,1395.07 911.49,1395.07 911.49,1375.9 846.97,1375.84 	"/>
	<polygon points="916.44,1285.2 967.42,1400.59 977.46,1377.87 937.27,1285.2 	"/>
	<polygon points="969.75,1349.49 979.81,1372.55 1018.41,1285.2 997.58,1285.2 	"/>
	<rect x="1024.13" y="1330.76" width="56.97" height="18.96"/>
	<polygon points="1024.13,1395.07 1088.66,1395.07 1088.66,1375.9 1024.13,1375.84 	"/>
	<rect x="1024.13" y="1285.2" width="64.53" height="19.18"/>
	<rect x="1104.55" y="1285.2" width="19.18" height="109.88"/>
	<rect x="1128.3" y="1375.9" width="38.27" height="19.18"/>
	<path d="M1230.34,1284.13l-2.19-0.17v19.19l1.81,0.19c18.77,2.02,32.92,17.84,32.92,36.79s-14.15,34.77-32.92,36.79l-1.81,0.19
		v19.19l2.19-0.17c29.01-2.29,51.73-26.89,51.73-56C1282.07,1311.02,1259.35,1286.42,1230.34,1284.13z"/>
	<path d="M1169.67,1340.13c0,29.12,22.72,53.72,51.73,56l2.19,0.17v-19.19l-1.81-0.19c-18.77-2.02-32.92-17.84-32.92-36.79
		s14.15-34.77,32.92-36.79l1.81-0.19v-19.19l-2.19,0.17C1192.39,1286.42,1169.67,1311.02,1169.67,1340.13z"/>
	<path d="M1332.66,1285.2h-34.78v19.18h38.72c9.29,0,19.22,4.64,19.22,17.65c0,15.65-12.78,17.34-18.28,17.34h-39.67v55.71h19.18
		v-36.53h20.33c22.15,0,37.62-15.4,37.62-37.46C1375,1298.28,1359.56,1285.2,1332.66,1285.2z"/>
	<rect x="1385.26" y="1330.76" width="56.97" height="18.96"/>
	<polygon points="1385.26,1395.07 1449.79,1395.07 1449.79,1375.9 1385.26,1375.84 	"/>
	<rect x="1385.26" y="1285.2" width="64.53" height="19.18"/>
	<path d="M1540.26,1321.08c0-22.81-15.43-35.89-42.34-35.89h-34.79v19.18h39.98c5.4,0,17.96,1.72,17.96,17.65
		c0,15.65-12.78,17.34-18.28,17.34h-39.66v55.71h19.18v-36.53h13.46l26.3,36.53h22.64l-27.91-38.88
		C1531.35,1351.07,1540.26,1337.86,1540.26,1321.08z"/>
	<path d="M1600.04,1329.32c-16.46-3.26-22.3-6.74-22.3-13.28c0-8.21,7.53-12.93,20.64-12.93c10.03,0,18.48,3.47,25.82,10.61
		l1.94,1.89l9.24-17.47l-1.14-1.06c-12.78-11.86-29.12-13.14-35.55-13.14c-24.01,0-40.14,13.16-40.14,32.74
		c0,17.29,12.18,27.09,39.47,31.76c10.22,1.78,22.41,5.69,22.41,14.22c0,9.21-8.21,14.5-22.53,14.5c-11.69,0-23.31-5.44-31.87-14.92
		l-1.9-2.11l-9.63,17.24l0.9,1.07c1.53,1.83,15.69,17.89,42.19,17.89c24.74,0,42.02-14.11,42.02-34.31
		C1639.63,1340.03,1620.6,1333.31,1600.04,1329.32z"/>
</g>
<g>
	<g>
		<path class="st0" d="M1224.42,891.42h7.24c-18.45-83.6-85.32-149.22-169.61-165.83v7.22
			C1142.42,749.21,1206.18,811.74,1224.42,891.42z"/>
	</g>
	<g>
		<path class="st0" d="M978.03,732.79v-7.2c-84.29,16.59-151.2,82.23-169.66,165.83h7.24C833.86,811.72,897.66,749.19,978.03,732.79
			z"/>
	</g>
	<g>
		<path class="st0" d="M1241.43,891.42h9.65c-19.02-94.08-94.24-168.05-189.03-185.18v9.6
			C1151.6,732.72,1222.7,802.54,1241.43,891.42z"/>
	</g>
	<g>
		<path class="st0" d="M978.03,715.84v-9.6c-94.79,17.11-170.06,91.08-189.08,185.18h9.65
			C817.34,802.54,888.46,732.72,978.03,715.84z"/>
	</g>
	<g>
		<path class="st0" d="M1167.57,881.61l-56.68,9.81h60.08h8.68h31.36l-3.63-13.59l-23.71-1.39c-1.32-3.47-2.71-6.89-4.22-10.26
			l15.76-17.74l-9.84-17.04l-23.24,4.79c-2.17-3-4.44-5.95-6.77-8.8l10.64-21.24l-13.9-13.92l-21.19,10.64
			c-2.86-2.36-5.83-4.62-8.85-6.82l4.79-23.17l-17.04-9.84l-17.63,15.67c-3.4-1.56-6.87-3-10.41-4.34l-1.37-23.5l-18.36-4.91v39.92
			C1110.58,799.23,1149.73,835.14,1167.57,881.61z"/>
	</g>
	<g>
		<path class="st0" d="M1062.05,1150.98c84.29-16.61,151.16-82.23,169.61-165.83h-7.24c-18.24,79.68-82,142.21-162.36,158.61
			V1150.98z"/>
	</g>
	<g>
		<path class="st0" d="M815.62,985.15h-7.24c18.45,83.6,85.37,149.25,169.66,165.83v-7.2
			C897.66,1127.38,833.86,1064.85,815.62,985.15z"/>
	</g>
	<g>
		<path class="st0" d="M1062.05,1160.73v9.6c94.79-17.13,170.01-91.1,189.03-185.18h-9.65
			C1222.7,1074.03,1151.6,1143.85,1062.05,1160.73z"/>
	</g>
	<g>
		<path class="st0" d="M798.6,985.15h-9.65c19.02,94.1,94.29,168.08,189.08,185.18v-9.6C888.46,1143.85,817.34,1074.03,798.6,985.15
			z"/>
	</g>
	<g>
		<path class="st0" d="M872.54,995.14l57.75-10h-61.23h-7.54h-32.51l3.63,13.59l23.05,1.34c1.37,3.66,2.86,7.24,4.46,10.78
			l-15.34,17.27l9.84,17.04l22.68-4.67c2.27,3.14,4.62,6.21,7.08,9.18l-10.41,20.74l13.92,13.92l20.76-10.43
			c3,2.43,6.04,4.77,9.18,7.01l-4.7,22.77l17.04,9.84l17.39-15.46c3.49,1.58,7.06,3.02,10.64,4.39l1.37,23.24l18.4,4.93v-39.92
			C929.55,1077.38,890.41,1041.55,872.54,995.14z"/>
	</g>
	<g>
		<path class="st0" d="M1062.05,1090.69v39.92l18.36-4.91l1.37-23.5c3.54-1.34,7.01-2.78,10.41-4.34l17.63,15.67l17.04-9.84
			l-4.79-23.17c3.02-2.19,5.99-4.46,8.85-6.82l21.19,10.64l13.9-13.92l-10.64-21.24c2.34-2.86,4.6-5.8,6.77-8.8l23.24,4.79
			l9.84-17.04l-15.76-17.74c1.51-3.37,2.9-6.8,4.22-10.26l23.71-1.39l3.63-13.59h-31.36h-8.68h-60.08l56.68,9.81
			C1149.73,1041.43,1110.58,1077.34,1062.05,1090.69z"/>
	</g>
	<g>
		<path class="st0" d="M872.54,881.43c17.88-46.41,57.01-82.24,105.49-95.57v-39.92l-18.4,4.93l-1.37,23.24
			c-3.59,1.37-7.15,2.81-10.64,4.39l-17.39-15.46l-17.04,9.84l4.7,22.77c-3.14,2.24-6.18,4.58-9.18,7.01l-20.76-10.43l-13.92,13.92
			l10.41,20.74c-2.45,2.97-4.81,6.04-7.08,9.18l-22.68-4.67l-9.84,17.04l15.34,17.27c-1.6,3.54-3.09,7.13-4.46,10.78l-23.05,1.34
			l-3.63,13.59h32.51h7.54h61.23L872.54,881.43z"/>
	</g>
	<g>
		<polyline class="st0" points="872.54,881.43 930.89,881.43 930.89,891.42 		"/>
	</g>
	<g>
		<polyline class="st0" points="1167.57,881.61 1111.3,881.61 1111.3,891.42 		"/>
	</g>
	<g>
		<polyline class="st0" points="872.54,995.14 929.81,995.14 929.81,985.15 		"/>
	</g>
	<g>
		<polyline class="st0" points="1167.57,994.96 1111.3,994.96 1111.3,985.15 		"/>
	</g>
	<g>
		<circle class="st0" cx="930.89" cy="886.52" r="10.48"/>
	</g>
	<g>
		<circle class="st0" cx="930.89" cy="990.15" r="10.48"/>
	</g>
	<g>
		<circle class="st0" cx="1111.3" cy="886.52" r="10.48"/>
	</g>
	<g>
		<circle class="st0" cx="1111.3" cy="989.4" r="10.48"/>
	</g>
	<g>
		<g>
			<circle class="st0" cx="767.78" cy="970.92" r="10.48"/>
		</g>
		<g>
			<circle class="st0" cx="743.61" cy="929.8" r="10.48"/>
		</g>
		<g>
			<circle class="st0" cx="772.73" cy="910.33" r="10.48"/>
		</g>
		<g>
			<polygon class="st0" points="886.77,934.52 741.99,934.52 741.99,925.08 882.86,925.08 898.8,909.13 898.8,886.42 908.24,886.42 
				908.24,913.04 			"/>
		</g>
		<g>
			<polygon class="st0" points="916.19,987.61 906.76,987.61 906.76,973.79 895.47,962.5 862.87,962.5 850.18,975.19 772.73,975.19 
				772.73,965.75 846.27,965.75 858.96,953.06 899.38,953.06 916.19,969.88 			"/>
		</g>
		<g>
			<polygon class="st0" points="870.65,933.13 852.56,915.04 781.76,915.04 781.76,905.61 856.47,905.61 877.33,926.46 			"/>
		</g>
	</g>
	<g>
		<g>
			<circle class="st0" cx="1279.57" cy="970.92" r="10.48"/>
		</g>
		<g>
			<circle class="st0" cx="1303.74" cy="929.8" r="10.48"/>
		</g>
		<g>
			<circle class="st0" cx="1274.62" cy="910.33" r="10.48"/>
		</g>
		<g>
			<polygon class="st0" points="1305.36,934.52 1160.58,934.52 1139.11,913.04 1139.11,886.42 1148.55,886.42 1148.55,909.13 
				1164.49,925.08 1305.36,925.08 			"/>
		</g>
		<g>
			<polygon class="st0" points="1140.59,987.61 1131.15,987.61 1131.15,969.88 1147.97,953.06 1188.39,953.06 1201.08,965.75 
				1274.62,965.75 1274.62,975.19 1197.17,975.19 1184.48,962.5 1151.88,962.5 1140.59,973.79 			"/>
		</g>
		<g>
			<polygon class="st0" points="1176.69,933.13 1170.02,926.46 1190.88,905.61 1265.58,905.61 1265.58,915.04 1194.79,915.04 			"/>
		</g>
	</g>
	<g>
		<g>
			<g>
				<path class="st0" d="M1053.91,848.63v59.66h-69.06v-59.66h-28.37v135.22h28.37v-50.32h69.06v98.39h28.37V877L1053.91,848.63z"/>
			</g>
		</g>
		<g>
			<rect x="1005.2" y="848.63" class="st0" width="28.37" height="29.19"/>
		</g>
		<g>
			<rect x="1005.2" y="908.29" class="st0" width="28.37" height="123.64"/>
		</g>
		<g>
			<polygon class="st0" points="1010.42,1003.56 1010.42,1031.93 983.61,1031.93 955.24,1003.56 			"/>
		</g>
	</g>
	<g>
		<g>
			<circle class="st0" cx="1000.57" cy="681.43" r="10.48"/>
		</g>
		<g>
			<circle class="st0" cx="1052.34" cy="681.43" r="10.48"/>
		</g>
		<g>
			<circle class="st0" cx="1030.65" cy="659.58" r="10.48"/>
		</g>
		<g>
			<polygon class="st0" points="974.68,779.39 968,772.71 995.85,744.87 995.85,687.06 1005.29,687.06 1005.29,748.78 			"/>
		</g>
		<g>
			<polygon class="st0" points="1003.9,734.89 997.23,728.22 1025.93,699.51 1025.93,665.22 1035.37,665.22 1035.37,703.43 			"/>
		</g>
		<g>
			<polygon class="st0" points="1066.3,777.77 1034.9,746.37 1034.9,723.63 1047.94,710.6 1047.94,684.23 1057.38,684.23 
				1057.38,714.51 1044.34,727.54 1044.34,742.46 1072.97,771.1 			"/>
		</g>
	</g>
	<g>
		<g>
			<circle class="st0" cx="1000.57" cy="1199.13" r="10.48"/>
		</g>
		<g>
			<circle class="st0" cx="1052.34" cy="1199.13" r="10.48"/>
		</g>
		<g>
			<circle class="st0" cx="1030.65" cy="1220.97" r="10.48"/>
		</g>
		<g>
			<polygon class="st0" points="1005.29,1193.5 995.85,1193.5 995.85,1135.69 968,1107.84 974.68,1101.17 1005.29,1131.78 			"/>
		</g>
		<g>
			<polygon class="st0" points="1035.37,1215.34 1025.93,1215.34 1025.93,1181.04 997.23,1152.34 1003.9,1145.67 1035.37,1177.13 
							"/>
		</g>
		<g>
			<polygon class="st0" points="1057.38,1196.33 1047.94,1196.33 1047.94,1169.96 1034.9,1156.92 1034.9,1134.19 1066.3,1102.79 
				1072.97,1109.46 1044.34,1138.09 1044.34,1153.01 1057.38,1166.05 			"/>
		</g>
	</g>
</g>
</svg>
