<?xml version="1.0" encoding="utf-8"?>
<!-- Generator: Adobe Illustrator 23.0.5, SVG Export Plug-In . SVG Version: 6.00 Build 0)  -->
<svg version="1.1" id="Layer_1" xmlns="http://www.w3.org/2000/svg" xmlns:xlink="http://www.w3.org/1999/xlink" x="0px" y="0px"
	 viewBox="0 0 2000 2000" style="enable-background:new 0 0 2000 2000;" xml:space="preserve">
<style type="text/css">
	.st0{fill:#0D6EFD;}
</style>
<g>
	<path d="M678.46,1060.07c0,14.25-5.65,21.48-16.81,21.48c-6.03,0-10.4-3.2-12.47-6.2l-1.68-2.43l-9.15,15.63l0.78,1
		c3.72,4.81,13.16,9.78,22.52,9.78c21.99,0,34.6-14.74,34.6-40.44v-62.64h-17.79V1060.07z"/>
	<path d="M780.05,1075.75c6.11-7.75,10.18-18.59,12.79-33.93l0.32-1.92h-14.37l-0.21,1.4c-1.61,10.53-4.09,18.61-7.56,24.63
		c-5.46-6.14-12.77-14.59-19.97-22.91c13.58-7.08,19.65-14.97,19.65-25.42c0-12.36-9.32-21.33-22.16-21.33
		c-16.53,0-25.19,12.33-25.19,24.5c0,6.32,2.46,12.93,7.12,19.2c-11.67,6.82-17.58,16.15-17.58,27.75
		c0,13.75,10.36,27.66,30.15,27.66c10.47,0,19.32-3.26,27.02-9.94c2.82,3.03,5.16,5.49,7.61,7.95l0.48,0.48h18.78l-6.93-7.46
		C786.55,1082.71,783.32,1079.22,780.05,1075.75z M737.78,1049.23c8.98,10.27,17.97,20.15,23.42,26.13l0.77,0.85
		c-4.49,4.33-10.56,6.79-16.88,6.79c-10.06,0-17.35-7.18-17.35-17.08C727.74,1059.45,731.12,1053.84,737.78,1049.23z
		 M743.44,1034.18c-3.1-4.02-5.78-8.6-5.78-14.52c0-5.9,3.11-11.85,10.06-11.85c7.18,0,9.09,6.49,9.09,10.33
		C756.8,1024.8,751.72,1029.29,743.44,1034.18z"/>
	<rect x="837.9" y="1038.32" width="33.87" height="17.79"/>
	<rect x="815.67" y="996.26" width="17.79" height="101.91"/>
	<polygon points="876.42,1038.32 876.21,1038.32 876.21,1054.23 876.42,1056.11 876.42,1098.17 894.21,1098.17 894.21,996.26 
		876.42,996.26 	"/>
	<path d="M982.83,996.26h-31.24v17.79h34.89c17.41,0,30.54,14.26,30.54,33.16c0,18.91-13.13,33.17-30.54,33.17h-34.89v17.79h31.24
		c31.09,0,51.97-20.48,51.97-50.95c0-14.21-4.72-27-13.29-36.02C1012.22,1001.43,998.85,996.26,982.83,996.26z"/>
	<rect x="1045.73" y="996.26" width="59.85" height="17.79"/>
	<rect x="1045.73" y="1038.52" width="52.84" height="17.59"/>
	<polygon points="1045.73,1098.17 1105.58,1098.17 1105.58,1080.38 1045.73,1080.33 	"/>
	<polygon points="1110.16,996.26 1157.45,1103.29 1166.76,1082.22 1129.48,996.26 	"/>
	<polygon points="1159.6,1055.89 1168.94,1077.28 1204.74,996.26 1185.42,996.26 	"/>
	<rect x="1210.04" y="1038.52" width="52.84" height="17.59"/>
	<polygon points="1210.04,1098.17 1269.89,1098.17 1269.89,1080.38 1210.04,1080.33 	"/>
	<rect x="1210.04" y="996.26" width="59.85" height="17.79"/>
	<rect x="1284.63" y="996.26" width="17.79" height="101.91"/>
	<rect x="1306.65" y="1080.38" width="35.49" height="17.79"/>
	<path d="M1401.3,995.27l-2.03-0.16v17.8l1.68,0.18c17.41,1.87,30.54,16.54,30.54,34.12s-13.13,32.25-30.54,34.12l-1.68,0.18v17.8
		l2.03-0.16c26.9-2.12,47.98-24.94,47.98-51.94C1449.27,1020.21,1428.2,997.4,1401.3,995.27z"/>
	<path d="M1345.03,1047.22c0,27.01,21.07,49.82,47.97,51.94l2.03,0.16v-17.8l-1.68-0.18c-17.41-1.87-30.53-16.54-30.53-34.12
		s13.13-32.25,30.53-34.12l1.68-0.18v-17.8l-2.03,0.16C1366.1,997.4,1345.03,1020.21,1345.03,1047.22z"/>
	<path d="M1496.18,996.26h-32.26v17.79h35.91c8.62,0,17.83,4.3,17.83,16.37c0,14.51-11.86,16.08-16.95,16.08h-36.79v51.67h17.79
		v-33.88h18.85c20.54,0,34.89-14.29,34.89-34.74C1535.45,1008.4,1521.14,996.26,1496.18,996.26z"/>
	<rect x="1544.98" y="1038.52" width="52.84" height="17.59"/>
	<polygon points="1544.98,1098.17 1604.82,1098.17 1604.82,1080.38 1544.98,1080.33 	"/>
	<rect x="1544.98" y="996.26" width="59.85" height="17.79"/>
	<path d="M1688.73,1029.55c0-21.15-14.31-33.28-39.27-33.28h-32.26v17.79h37.08c5.01,0,16.66,1.6,16.66,16.37
		c0,14.51-11.85,16.08-16.95,16.08h-36.79v51.67h17.79v-33.88h12.48l24.39,33.88h20.99l-25.88-36.06
		C1680.46,1057.36,1688.73,1045.11,1688.73,1029.55z"/>
	<path d="M1744.17,1037.19c-15.27-3.03-20.68-6.25-20.68-12.32c0-7.62,6.98-11.99,19.15-11.99c9.3,0,17.14,3.22,23.95,9.84l1.8,1.75
		l8.57-16.21l-1.06-0.98c-11.86-11-27.01-12.18-32.97-12.18c-22.27,0-37.23,12.2-37.23,30.36c0,16.04,11.29,25.12,36.61,29.46
		c9.48,1.65,20.78,5.28,20.78,13.18c0,8.55-7.62,13.45-20.89,13.45c-10.84,0-21.62-5.04-29.56-13.84l-1.76-1.95l-8.93,15.99
		l0.83,0.99c1.42,1.7,14.55,16.6,39.13,16.6c22.95,0,38.97-13.09,38.97-31.82C1780.89,1047.12,1763.24,1040.88,1744.17,1037.19z"/>
</g>
<g>
	<g>
		<path class="st0" d="M544.88,1018.95h4.48c-11.42-51.75-52.81-92.36-104.98-102.64v4.47
			C494.12,930.93,533.59,969.63,544.88,1018.95z"/>
	</g>
	<g>
		<path class="st0" d="M392.37,920.76v-4.45c-52.17,10.27-93.59,50.9-105.01,102.64h4.48C303.13,969.62,342.62,930.91,392.37,920.76
			z"/>
	</g>
	<g>
		<path class="st0" d="M555.41,1018.95h5.97c-11.77-58.23-58.33-104.02-117-114.62v5.94C499.8,920.72,543.81,963.93,555.41,1018.95z
			"/>
	</g>
	<g>
		<path class="st0" d="M392.37,910.28v-5.94c-58.67,10.59-105.26,56.38-117.03,114.62h5.97
			C292.91,963.93,336.93,920.72,392.37,910.28z"/>
	</g>
	<g>
		<path class="st0" d="M509.69,1012.88l-35.08,6.07h37.19h5.37h19.41l-2.25-8.41l-14.68-0.86c-0.82-2.15-1.68-4.26-2.61-6.35
			l9.76-10.98l-6.09-10.54l-14.39,2.96c-1.34-1.85-2.75-3.68-4.19-5.45l6.59-13.14l-8.6-8.62l-13.12,6.59
			c-1.77-1.46-3.61-2.86-5.48-4.22l2.96-14.34l-10.54-6.09l-10.91,9.7c-2.1-0.96-4.25-1.85-6.44-2.69l-0.85-14.55l-11.36-3.04v24.71
			C474.41,961.89,498.64,984.11,509.69,1012.88z"/>
	</g>
	<g>
		<path class="st0" d="M444.38,1179.61c52.17-10.28,93.56-50.9,104.98-102.65h-4.48c-11.29,49.32-50.75,88.03-100.5,98.18V1179.61z"
			/>
	</g>
	<g>
		<path class="st0" d="M291.84,1076.96h-4.48c11.42,51.75,52.84,92.38,105.01,102.65v-4.45
			C342.62,1165,303.13,1126.3,291.84,1076.96z"/>
	</g>
	<g>
		<path class="st0" d="M444.38,1185.64v5.94c58.67-10.6,105.23-56.39,117-114.62h-5.97C543.81,1131.98,499.8,1175.2,444.38,1185.64z
			"/>
	</g>
	<g>
		<path class="st0" d="M281.31,1076.96h-5.97c11.77,58.25,58.36,104.03,117.03,114.62v-5.94
			C336.93,1175.2,292.91,1131.98,281.31,1076.96z"/>
	</g>
	<g>
		<path class="st0" d="M327.07,1083.15l35.75-6.19h-37.9h-4.66h-20.12l2.25,8.41l14.27,0.83c0.85,2.26,1.77,4.48,2.76,6.67
			l-9.49,10.69l6.09,10.54l14.04-2.89c1.4,1.94,2.86,3.84,4.38,5.68l-6.44,12.84l8.62,8.62l12.85-6.46c1.85,1.5,3.74,2.95,5.68,4.34
			l-2.91,14.09l10.54,6.09l10.76-9.57c2.16,0.98,4.37,1.87,6.59,2.72l0.85,14.39l11.39,3.05v-24.71
			C362.36,1134.05,338.14,1111.88,327.07,1083.15z"/>
	</g>
	<g>
		<path class="st0" d="M444.38,1142.29V1167l11.36-3.04l0.85-14.55c2.19-0.83,4.34-1.72,6.44-2.69l10.91,9.7l10.54-6.09l-2.96-14.34
			c1.87-1.36,3.71-2.76,5.48-4.22l13.12,6.59l8.6-8.62l-6.59-13.14c1.45-1.77,2.85-3.59,4.19-5.45l14.39,2.96l6.09-10.54
			l-9.76-10.98c0.93-2.09,1.8-4.21,2.61-6.35l14.68-0.86l2.25-8.41h-19.41h-5.37h-37.19l35.08,6.07
			C498.64,1111.8,474.41,1134.03,444.38,1142.29z"/>
	</g>
	<g>
		<path class="st0" d="M327.07,1012.76c11.06-28.72,35.29-50.9,65.29-59.16V928.9l-11.39,3.05l-0.85,14.39
			c-2.22,0.85-4.43,1.74-6.59,2.72l-10.76-9.57l-10.54,6.09l2.91,14.09c-1.94,1.39-3.83,2.83-5.68,4.34l-12.85-6.46l-8.62,8.62
			l6.44,12.84c-1.52,1.84-2.98,3.74-4.38,5.68l-14.04-2.89l-6.09,10.54l9.49,10.69c-0.99,2.19-1.91,4.41-2.76,6.67l-14.27,0.83
			l-2.25,8.41h20.12h4.66h37.9L327.07,1012.76z"/>
	</g>
	<g>
		<polyline class="st0" points="327.07,1012.76 363.19,1012.76 363.19,1018.95 		"/>
	</g>
	<g>
		<polyline class="st0" points="509.69,1012.88 474.86,1012.88 474.86,1018.95 		"/>
	</g>
	<g>
		<polyline class="st0" points="327.07,1083.15 362.52,1083.15 362.52,1076.96 		"/>
	</g>
	<g>
		<polyline class="st0" points="509.69,1083.04 474.86,1083.04 474.86,1076.96 		"/>
	</g>
	<g>
		<circle class="st0" cx="363.19" cy="1015.92" r="6.49"/>
	</g>
	<g>
		<circle class="st0" cx="363.19" cy="1080.06" r="6.49"/>
	</g>
	<g>
		<circle class="st0" cx="474.86" cy="1015.92" r="6.49"/>
	</g>
	<g>
		<circle class="st0" cx="474.86" cy="1079.59" r="6.49"/>
	</g>
	<g>
		<g>
			<circle class="st0" cx="262.23" cy="1068.15" r="6.49"/>
		</g>
		<g>
			<circle class="st0" cx="247.27" cy="1042.7" r="6.49"/>
		</g>
		<g>
			<circle class="st0" cx="265.3" cy="1030.65" r="6.49"/>
		</g>
		<g>
			<polygon class="st0" points="335.88,1045.63 246.27,1045.63 246.27,1039.78 333.46,1039.78 343.33,1029.91 343.33,1015.86 
				349.17,1015.86 349.17,1032.33 			"/>
		</g>
		<g>
			<polygon class="st0" points="354.1,1078.49 348.25,1078.49 348.25,1069.93 341.27,1062.95 321.09,1062.95 313.23,1070.8 
				265.3,1070.8 265.3,1064.96 310.81,1064.96 318.67,1057.1 343.69,1057.1 354.1,1067.51 			"/>
		</g>
		<g>
			<polygon class="st0" points="325.91,1044.77 314.71,1033.57 270.89,1033.57 270.89,1027.73 317.13,1027.73 330.04,1040.64 			"/>
		</g>
	</g>
	<g>
		<g>
			<circle class="st0" cx="579.01" cy="1068.15" r="6.49"/>
		</g>
		<g>
			<circle class="st0" cx="593.97" cy="1042.7" r="6.49"/>
		</g>
		<g>
			<circle class="st0" cx="575.95" cy="1030.65" r="6.49"/>
		</g>
		<g>
			<polygon class="st0" points="594.98,1045.63 505.36,1045.63 492.07,1032.33 492.07,1015.86 497.91,1015.86 497.91,1029.91 
				507.78,1039.78 594.98,1039.78 			"/>
		</g>
		<g>
			<polygon class="st0" points="492.99,1078.49 487.15,1078.49 487.15,1067.51 497.55,1057.1 522.58,1057.1 530.43,1064.96 
				575.95,1064.96 575.95,1070.8 528.01,1070.8 520.16,1062.95 499.98,1062.95 492.99,1069.93 			"/>
		</g>
		<g>
			<polygon class="st0" points="515.34,1044.77 511.2,1040.64 524.11,1027.73 570.36,1027.73 570.36,1033.57 526.53,1033.57 			"/>
		</g>
	</g>
	<g>
		<g>
			<g>
				<path class="st0" d="M439.34,992.46v36.93h-42.75v-36.93h-17.56v83.7h17.56v-31.14h42.75v60.9h17.56v-95.89L439.34,992.46z"/>
			</g>
		</g>
		<g>
			<rect x="409.19" y="992.46" class="st0" width="17.56" height="18.07"/>
		</g>
		<g>
			<rect x="409.19" y="1029.39" class="st0" width="17.56" height="76.53"/>
		</g>
		<g>
			<polygon class="st0" points="412.42,1088.36 412.42,1105.92 395.82,1105.92 378.27,1088.36 			"/>
		</g>
	</g>
	<g>
		<g>
			<circle class="st0" cx="406.32" cy="888.97" r="6.49"/>
		</g>
		<g>
			<circle class="st0" cx="438.37" cy="888.97" r="6.49"/>
		</g>
		<g>
			<circle class="st0" cx="424.94" cy="875.45" r="6.49"/>
		</g>
		<g>
			<polygon class="st0" points="390.29,949.61 386.16,945.48 403.4,928.24 403.4,892.46 409.24,892.46 409.24,930.66 			"/>
		</g>
		<g>
			<polygon class="st0" points="408.38,922.06 404.25,917.93 422.02,900.17 422.02,878.94 427.86,878.94 427.86,902.59 			"/>
		</g>
		<g>
			<polygon class="st0" points="447.01,948.6 427.57,929.17 427.57,915.1 435.64,907.03 435.64,890.71 441.48,890.71 441.48,909.45 
				433.41,917.52 433.41,926.75 451.14,944.47 			"/>
		</g>
	</g>
	<g>
		<g>
			<circle class="st0" cx="406.32" cy="1209.41" r="6.49"/>
		</g>
		<g>
			<circle class="st0" cx="438.37" cy="1209.41" r="6.49"/>
		</g>
		<g>
			<circle class="st0" cx="424.94" cy="1222.93" r="6.49"/>
		</g>
		<g>
			<polygon class="st0" points="409.24,1205.92 403.4,1205.92 403.4,1170.14 386.16,1152.91 390.29,1148.78 409.24,1167.72 			"/>
		</g>
		<g>
			<polygon class="st0" points="427.86,1219.45 422.02,1219.45 422.02,1198.21 404.25,1180.45 408.38,1176.32 427.86,1195.8 			"/>
		</g>
		<g>
			<polygon class="st0" points="441.48,1207.68 435.64,1207.68 435.64,1191.35 427.57,1183.29 427.57,1169.21 447.01,1149.78 
				451.14,1153.91 433.41,1171.63 433.41,1180.87 441.48,1188.94 			"/>
		</g>
	</g>
</g>
</svg>
