<?xml version="1.0" encoding="utf-8"?>
<!-- Generator: Adobe Illustrator 23.0.5, SVG Export Plug-In . SVG Version: 6.00 Build 0)  -->
<svg version="1.1" id="Layer_1" xmlns="http://www.w3.org/2000/svg" xmlns:xlink="http://www.w3.org/1999/xlink" x="0px" y="0px"
	 viewBox="0 0 2000 2000" style="enable-background:new 0 0 2000 2000;" xml:space="preserve">
<style type="text/css">
	.st0{fill:#0D6EFD;}
</style>
<g>
	<g>
		<path class="st0" d="M1354.98,956.84h13.69c-34.88-158.04-161.29-282.09-320.63-313.49V657
			C1199.97,688,1320.5,806.2,1354.98,956.84z"/>
	</g>
	<g>
		<path class="st0" d="M889.2,656.95v-13.61C729.87,674.7,603.37,798.8,568.49,956.84h13.69
			C616.66,806.16,737.28,687.95,889.2,656.95z"/>
	</g>
	<g>
		<path class="st0" d="M1387.14,956.84h18.24c-35.95-177.84-178.16-317.68-357.34-350.07v18.15
			C1217.32,656.82,1351.72,788.81,1387.14,956.84z"/>
	</g>
	<g>
		<path class="st0" d="M889.2,624.92v-18.15c-179.18,32.34-321.47,172.18-357.43,350.07h18.24
			C585.44,788.81,719.88,656.82,889.2,624.92z"/>
	</g>
	<g>
		<path class="st0" d="M1247.51,938.29l-107.15,18.55h113.58h16.41h59.28l-6.87-25.69l-44.83-2.63c-2.5-6.56-5.13-13.03-7.98-19.4
			l29.8-33.54l-18.6-32.21l-43.94,9.06c-4.1-5.67-8.39-11.24-12.8-16.64l20.12-40.15l-26.27-26.32l-40.06,20.12
			c-5.4-4.46-11.02-8.74-16.73-12.89l9.05-43.8l-32.21-18.6l-33.32,29.62c-6.42-2.94-12.98-5.67-19.67-8.21l-2.59-44.43l-34.7-9.28
			v75.47C1139.77,782.55,1213.78,850.43,1247.51,938.29z"/>
	</g>
	<g>
		<path class="st0" d="M1048.04,1447.5c159.33-31.4,285.75-155.45,320.63-313.49h-13.69c-34.48,150.63-155.01,268.84-306.93,299.84
			V1447.5z"/>
	</g>
	<g>
		<path class="st0" d="M582.18,1134.01h-13.69c34.88,158.04,161.38,282.13,320.72,313.49v-13.6
			C737.28,1402.9,616.66,1284.69,582.18,1134.01z"/>
	</g>
	<g>
		<path class="st0" d="M1048.04,1465.92v18.15c179.18-32.38,321.39-172.22,357.34-350.07h-18.24
			C1351.72,1302.04,1217.32,1434.03,1048.04,1465.92z"/>
	</g>
	<g>
		<path class="st0" d="M550.02,1134.01h-18.24c35.95,177.89,178.25,317.73,357.43,350.07v-18.15
			C719.88,1434.03,585.44,1302.04,550.02,1134.01z"/>
	</g>
	<g>
		<path class="st0" d="M689.79,1152.91l109.18-18.9H683.21h-14.24h-61.45l6.87,25.69l43.58,2.54c2.59,6.91,5.4,13.69,8.43,20.38
			l-28.99,32.65l18.6,32.21l42.87-8.83c4.28,5.93,8.74,11.73,13.38,17.35l-19.67,39.21l26.32,26.32l39.25-19.72
			c5.67,4.59,11.42,9.01,17.35,13.25l-8.88,43.04l32.21,18.6l32.87-29.22c6.6,2.99,13.34,5.71,20.12,8.3l2.59,43.94l34.79,9.32
			v-75.47C797.55,1308.37,723.58,1240.64,689.79,1152.91z"/>
	</g>
	<g>
		<path class="st0" d="M1048.04,1333.53v75.47l34.7-9.28l2.59-44.43c6.69-2.54,13.25-5.26,19.67-8.21l33.32,29.62l32.21-18.6
			l-9.05-43.8c5.71-4.15,11.33-8.43,16.73-12.89l40.06,20.12l26.27-26.32l-20.12-40.15c4.42-5.4,8.7-10.97,12.8-16.64l43.94,9.06
			l18.6-32.21l-29.8-33.54c2.85-6.38,5.49-12.85,7.98-19.4l44.83-2.63l6.87-25.69h-59.28h-16.41h-113.58l107.15,18.55
			C1213.78,1240.42,1139.77,1308.3,1048.04,1333.53z"/>
	</g>
	<g>
		<path class="st0" d="M689.79,937.94c33.79-87.73,107.77-155.46,199.42-180.67V681.8l-34.79,9.32l-2.59,43.94
			c-6.78,2.59-13.52,5.31-20.12,8.3l-32.87-29.22l-32.21,18.6l8.88,43.04c-5.93,4.24-11.69,8.65-17.35,13.25l-39.25-19.72
			l-26.32,26.32l19.67,39.21c-4.64,5.62-9.1,11.42-13.38,17.35L656,843.36l-18.6,32.21l28.99,32.65
			c-3.03,6.69-5.84,13.47-8.43,20.38l-43.58,2.54l-6.87,25.69h61.45h14.24h115.75L689.79,937.94z"/>
	</g>
	<g>
		<polyline class="st0" points="689.79,937.94 800.1,937.94 800.1,956.84 		"/>
	</g>
	<g>
		<polyline class="st0" points="1247.51,938.29 1141.14,938.29 1141.14,956.84 		"/>
	</g>
	<g>
		<polyline class="st0" points="689.79,1152.91 798.06,1152.91 798.06,1134.01 		"/>
	</g>
	<g>
		<polyline class="st0" points="1247.51,1152.56 1141.14,1152.56 1141.14,1134.01 		"/>
	</g>
	<g>
		<circle class="st0" cx="800.1" cy="947.56" r="19.81"/>
	</g>
	<g>
		<circle class="st0" cx="800.1" cy="1143.46" r="19.81"/>
	</g>
	<g>
		<circle class="st0" cx="1141.14" cy="947.56" r="19.81"/>
	</g>
	<g>
		<circle class="st0" cx="1141.14" cy="1142.04" r="19.81"/>
	</g>
	<g>
		<g>
			<circle class="st0" cx="491.76" cy="1107.11" r="19.81"/>
		</g>
		<g>
			<circle class="st0" cx="446.05" cy="1029.38" r="19.81"/>
		</g>
		<g>
			<circle class="st0" cx="501.11" cy="992.57" r="19.81"/>
		</g>
		<g>
			<polygon class="st0" points="716.69,1038.3 443,1038.3 443,1020.46 709.3,1020.46 739.44,990.31 739.44,947.39 757.28,947.39 
				757.28,997.71 			"/>
		</g>
		<g>
			<polygon class="st0" points="772.31,1138.66 754.47,1138.66 754.47,1112.53 733.14,1091.2 671.5,1091.2 647.52,1115.19 
				501.11,1115.19 501.11,1097.34 640.13,1097.34 664.11,1073.36 740.53,1073.36 772.31,1105.14 			"/>
		</g>
		<g>
			<polygon class="st0" points="686.23,1035.69 652.03,1001.49 518.19,1001.49 518.19,983.65 659.42,983.65 698.84,1023.07 			"/>
		</g>
	</g>
	<g>
		<g>
			<circle class="st0" cx="1459.23" cy="1107.11" r="19.81"/>
		</g>
		<g>
			<circle class="st0" cx="1504.93" cy="1029.38" r="19.81"/>
		</g>
		<g>
			<circle class="st0" cx="1449.88" cy="992.57" r="19.81"/>
		</g>
		<g>
			<polygon class="st0" points="1507.99,1038.3 1234.3,1038.3 1193.7,997.71 1193.7,947.39 1211.55,947.39 1211.55,990.31 
				1241.69,1020.46 1507.99,1020.46 			"/>
		</g>
		<g>
			<polygon class="st0" points="1196.51,1138.66 1178.67,1138.66 1178.67,1105.14 1210.46,1073.36 1286.87,1073.36 1310.86,1097.34 
				1449.88,1097.34 1449.88,1115.19 1303.47,1115.19 1279.48,1091.2 1217.85,1091.2 1196.51,1112.53 			"/>
		</g>
		<g>
			<polygon class="st0" points="1264.76,1035.69 1252.15,1023.07 1291.57,983.65 1432.8,983.65 1432.8,1001.49 1298.96,1001.49 			
				"/>
		</g>
	</g>
	<g>
		<g>
			<g>
				<path class="st0" d="M1032.66,875.94v112.78H902.11V875.94h-53.63v255.62h53.63v-95.12h130.55v186h53.63V929.57L1032.66,875.94z
					"/>
			</g>
		</g>
		<g>
			<rect x="940.57" y="875.94" class="st0" width="53.63" height="55.18"/>
		</g>
		<g>
			<rect x="940.57" y="988.72" class="st0" width="53.63" height="233.72"/>
		</g>
		<g>
			<polygon class="st0" points="950.44,1168.81 950.44,1222.44 899.76,1222.44 846.13,1168.81 			"/>
		</g>
	</g>
	<g>
		<g>
			<circle class="st0" cx="931.81" cy="559.86" r="19.81"/>
		</g>
		<g>
			<circle class="st0" cx="1029.69" cy="559.86" r="19.81"/>
		</g>
		<g>
			<circle class="st0" cx="988.68" cy="518.57" r="19.81"/>
		</g>
		<g>
			<polygon class="st0" points="882.87,745.05 870.26,732.43 922.89,679.79 922.89,570.51 940.73,570.51 940.73,687.19 			"/>
		</g>
		<g>
			<polygon class="st0" points="938.12,660.93 925.5,648.31 979.76,594.05 979.76,529.22 997.6,529.22 997.6,601.45 			"/>
		</g>
		<g>
			<polygon class="st0" points="1056.07,741.99 996.72,682.63 996.72,639.65 1021.36,615.01 1021.36,565.16 1039.2,565.16 
				1039.2,622.4 1014.56,647.04 1014.56,675.24 1068.69,729.37 			"/>
		</g>
	</g>
	<g>
		<g>
			<circle class="st0" cx="931.81" cy="1538.52" r="19.81"/>
		</g>
		<g>
			<circle class="st0" cx="1029.69" cy="1538.52" r="19.81"/>
		</g>
		<g>
			<circle class="st0" cx="988.68" cy="1579.81" r="19.81"/>
		</g>
		<g>
			<polygon class="st0" points="940.73,1527.87 922.89,1527.87 922.89,1418.59 870.26,1365.95 882.87,1353.34 940.73,1411.2 			"/>
		</g>
		<g>
			<polygon class="st0" points="997.6,1569.17 979.76,1569.17 979.76,1504.33 925.5,1450.07 938.12,1437.45 997.6,1496.94 			"/>
		</g>
		<g>
			<polygon class="st0" points="1039.2,1533.23 1021.36,1533.23 1021.36,1483.38 996.72,1458.73 996.72,1415.75 1056.07,1356.4 
				1068.69,1369.01 1014.56,1423.14 1014.56,1451.35 1039.2,1475.99 			"/>
		</g>
	</g>
</g>
</svg>
